<svg xmlns="http://www.w3.org/2000/svg" xmlns:xlink="http://www.w3.org/1999/xlink" xml:space="preserve" version="1.1" style="shape-rendering:geometricPrecision;text-rendering:geometricPrecision;image-rendering:optimizeQuality;" viewBox="0 0 812 657.5" x="0px" y="0px" fill-rule="evenodd" clip-rule="evenodd"><defs><style type="text/css">
   
    .fil0 {fill:black;fill-rule:nonzero}
   
  </style></defs><g><path class="fil0" d="M406 97c92,0 166,74 166,166 0,92 -74,167 -166,167 -92,0 -166,-75 -166,-167 0,-92 74,-166 166,-166zm0 429c-182,0 -327,-102 -406,-263 78,-161 224,-263 406,-263 181,0 328,102 406,263 -78,161 -224,263 -406,263zm340 -263c-67,-126 -197,-204 -340,-204 -143,0 -273,78 -340,204 67,126 197,204 340,204 143,0 273,-78 340,-204zm-340 -107c-59,0 -107,48 -107,107 0,59 48,107 107,107 59,0 107,-47 107,-107 0,-59 -48,-107 -107,-107z"/></g><text x="0" y="541" fill="#000000" font-size="5px" font-weight="bold" font-family="'Helvetica Neue', Helvetica, Arial-Unicode, Arial, Sans-serif">Created by Suib Sumi</text><text x="0" y="546" fill="#000000" font-size="5px" font-weight="bold" font-family="'Helvetica Neue', Helvetica, Arial-Unicode, Arial, Sans-serif">from the Noun Project</text></svg>